REM DIRINDEX 1\2,1\3,1\4,1\5
REM DIRNAME folder01,folder02,folder03,folder04,folder05
TITLE ""
FILE "P1Q_t_1150-1159.mp3" MP3
  TRACK 01 AUDIO
    TITLE "3:cjc005_4356"
    INDEX 01 00:00:00
  TRACK 02 AUDIO
    TITLE "0:"
    INDEX 01 00:01:11
  TRACK 03 AUDIO
    TITLE "4:cjc005_4357"
    INDEX 01 00:01:36
  TRACK 04 AUDIO
    TITLE "0:"
    INDEX 01 00:02:59
  TRACK 05 AUDIO
    TITLE "5:cjc005_4358"
    INDEX 01 00:03:06
  TRACK 06 AUDIO
    TITLE "0:"
    INDEX 01 00:07:37
  TRACK 07 AUDIO
    TITLE "3:cjc005_4359"
    INDEX 01 00:08:13
  TRACK 08 AUDIO
    TITLE "0:"
    INDEX 01 00:09:34
  TRACK 09 AUDIO
    TITLE "4:cjc005_4360"
    INDEX 01 00:09:61
  TRACK 10 AUDIO
    TITLE "0:"
    INDEX 01 00:11:07
  TRACK 11 AUDIO
    TITLE "5:cjc005_4361"
    INDEX 01 00:11:33
  TRACK 12 AUDIO
    TITLE "0:"
    INDEX 01 00:15:34
  TRACK 13 AUDIO
    TITLE "3:cjc005_4362"
    INDEX 01 00:16:06
  TRACK 14 AUDIO
    TITLE "0:"
    INDEX 01 00:17:25
  TRACK 15 AUDIO
    TITLE "4:cjc005_4363"
    INDEX 01 00:17:49
  TRACK 16 AUDIO
    TITLE "0:"
    INDEX 01 00:18:50
  TRACK 17 AUDIO
    TITLE "5:cjc005_4364"
    INDEX 01 00:18:74
  TRACK 18 AUDIO
    TITLE "0:"
    INDEX 01 00:23:50
  TRACK 19 AUDIO
    TITLE "3:cjc005_4365"
    INDEX 01 00:24:24
  TRACK 20 AUDIO
    TITLE "0:"
    INDEX 01 00:25:37
  TRACK 21 AUDIO
    TITLE "4:cjc005_4366"
    INDEX 01 00:25:64
  TRACK 22 AUDIO
    TITLE "0:"
    INDEX 01 00:27:20
  TRACK 23 AUDIO
    TITLE "5:cjc005_4367"
    INDEX 01 00:27:43
  TRACK 24 AUDIO
    TITLE "0:"
    INDEX 01 00:30:71
  TRACK 25 AUDIO
    TITLE "3:cjc005_4368"
    INDEX 01 00:31:47
  TRACK 26 AUDIO
    TITLE "0:"
    INDEX 01 00:32:58
  TRACK 27 AUDIO
    TITLE "4:cjc005_4369"
    INDEX 01 00:33:13
  TRACK 28 AUDIO
    TITLE "0:"
    INDEX 01 00:34:16
  TRACK 29 AUDIO
    TITLE "5:cjc005_4370"
    INDEX 01 00:34:43
  TRACK 30 AUDIO
    TITLE "0:"
    INDEX 01 00:38:59
  TRACK 31 AUDIO
    TITLE "3:cjc005_4371"
    INDEX 01 00:39:35
  TRACK 32 AUDIO
    TITLE "0:"
    INDEX 01 00:40:50
  TRACK 33 AUDIO
    TITLE "4:cjc005_4372"
    INDEX 01 00:41:00
  TRACK 34 AUDIO
    TITLE "0:"
    INDEX 01 00:42:18
  TRACK 35 AUDIO
    TITLE "5:cjc005_4373"
    INDEX 01 00:42:41
  TRACK 36 AUDIO
    TITLE "0:"
    INDEX 01 00:45:67
  TRACK 37 AUDIO
    TITLE "3:cjc005_4374"
    INDEX 01 00:46:51
  TRACK 38 AUDIO
    TITLE "0:"
    INDEX 01 00:47:64
  TRACK 39 AUDIO
    TITLE "4:cjc005_4375"
    INDEX 01 00:48:16
  TRACK 40 AUDIO
    TITLE "0:"
    INDEX 01 00:49:37
  TRACK 41 AUDIO
    TITLE "5:cjc005_4376"
    INDEX 01 00:49:63
  TRACK 42 AUDIO
    TITLE "0:"
    INDEX 01 00:52:71
  TRACK 43 AUDIO
    TITLE "3:cjc005_4377"
    INDEX 01 00:53:41
  TRACK 44 AUDIO
    TITLE "0:"
    INDEX 01 00:54:25
  TRACK 45 AUDIO
    TITLE "4:cjc005_4378"
    INDEX 01 00:54:60
  TRACK 46 AUDIO
    TITLE "0:"
    INDEX 01 00:56:22
  TRACK 47 AUDIO
    TITLE "5:cjc005_4379"
    INDEX 01 00:56:45
  TRACK 48 AUDIO
    TITLE "0:"
    INDEX 01 01:01:40
  TRACK 49 AUDIO
    TITLE "3:cjc005_4380"
    INDEX 01 01:02:16
  TRACK 50 AUDIO
    TITLE "0:"
    INDEX 01 01:03:41
  TRACK 51 AUDIO
    TITLE "4:cjc005_4381"
    INDEX 01 01:03:63
  TRACK 52 AUDIO
    TITLE "0:"
    INDEX 01 01:05:26
  TRACK 53 AUDIO
    TITLE "5:cjc005_4382"
    INDEX 01 01:05:50
  TRACK 54 AUDIO
    TITLE "0:"
    INDEX 01 01:10:49
  TRACK 55 AUDIO
    TITLE "3:cjc005_4383"
    INDEX 01 01:11:25
  TRACK 56 AUDIO
    TITLE "0:"
    INDEX 01 01:12:46
  TRACK 57 AUDIO
    TITLE "4:cjc005_4384"
    INDEX 01 01:12:71
  TRACK 58 AUDIO
    TITLE "0:"
    INDEX 01 01:14:25
  TRACK 59 AUDIO
    TITLE "5:cjc005_4385"
    INDEX 01 01:14:49
  TRACK 60 AUDIO
    TITLE "0:"
    INDEX 01 01:19:05
